<mxfile host="app.diagrams.net" modified="2023-08-21T04:07:27.317Z" agent="Mozilla/5.0 (Windows NT 10.0; Win64; x64) AppleWebKit/537.36 (KHTML, like Gecko) Chrome/115.0.0.0 Safari/537.36 OPR/101.0.0.0 (Edition std-1)" etag="x8epqUMH8T1lXDjMbn-C" version="21.6.8" type="github">
  <diagram name="Page-1" id="B8OW50SZ6rO1WVGIVzeD">
    <mxGraphModel dx="1239" dy="973" grid="0" gridSize="10" guides="1" tooltips="1" connect="1" arrows="1" fold="1" page="0" pageScale="1" pageWidth="850" pageHeight="1100" math="0" shadow="0">
      <root>
        <mxCell id="0" />
        <mxCell id="1" parent="0" />
        <mxCell id="EPdnfv_LTICuudPHdmh1-5" style="edgeStyle=none;curved=1;rounded=0;orthogonalLoop=1;jettySize=auto;html=1;exitX=0.5;exitY=1;exitDx=0;exitDy=0;entryX=0.5;entryY=0;entryDx=0;entryDy=0;fontSize=12;startSize=8;endSize=8;" edge="1" parent="1" source="EPdnfv_LTICuudPHdmh1-1" target="EPdnfv_LTICuudPHdmh1-3">
          <mxGeometry relative="1" as="geometry" />
        </mxCell>
        <mxCell id="EPdnfv_LTICuudPHdmh1-1" value="microcontroller&lt;br&gt;(Arduino Uno)" style="rounded=1;whiteSpace=wrap;html=1;fontSize=16;" vertex="1" parent="1">
          <mxGeometry x="131" y="80" width="127" height="117" as="geometry" />
        </mxCell>
        <mxCell id="EPdnfv_LTICuudPHdmh1-3" value="RF module&lt;br&gt;(senders)" style="ellipse;whiteSpace=wrap;html=1;fontSize=16;" vertex="1" parent="1">
          <mxGeometry x="134.5" y="225" width="120" height="80" as="geometry" />
        </mxCell>
        <mxCell id="EPdnfv_LTICuudPHdmh1-19" style="edgeStyle=none;curved=1;rounded=0;orthogonalLoop=1;jettySize=auto;html=1;exitX=0.5;exitY=1;exitDx=0;exitDy=0;fontSize=12;startSize=8;endSize=8;" edge="1" parent="1" source="EPdnfv_LTICuudPHdmh1-4" target="EPdnfv_LTICuudPHdmh1-18">
          <mxGeometry relative="1" as="geometry" />
        </mxCell>
        <mxCell id="EPdnfv_LTICuudPHdmh1-4" value="RF module&lt;br&gt;(Receiver)" style="ellipse;whiteSpace=wrap;html=1;fontSize=16;" vertex="1" parent="1">
          <mxGeometry x="138" y="333" width="120" height="80" as="geometry" />
        </mxCell>
        <mxCell id="EPdnfv_LTICuudPHdmh1-12" style="edgeStyle=none;curved=1;rounded=0;orthogonalLoop=1;jettySize=auto;html=1;exitX=1;exitY=1;exitDx=0;exitDy=0;fontSize=12;startSize=8;endSize=8;" edge="1" parent="1" source="EPdnfv_LTICuudPHdmh1-6" target="EPdnfv_LTICuudPHdmh1-1">
          <mxGeometry relative="1" as="geometry" />
        </mxCell>
        <mxCell id="EPdnfv_LTICuudPHdmh1-6" value="&lt;font style=&quot;font-size: 12px;&quot;&gt;temperature sensor&lt;/font&gt;" style="whiteSpace=wrap;html=1;aspect=fixed;fontSize=16;" vertex="1" parent="1">
          <mxGeometry x="-39" y="-63" width="78" height="78" as="geometry" />
        </mxCell>
        <mxCell id="EPdnfv_LTICuudPHdmh1-13" style="edgeStyle=none;curved=1;rounded=0;orthogonalLoop=1;jettySize=auto;html=1;exitX=0.75;exitY=1;exitDx=0;exitDy=0;entryX=0.37;entryY=0;entryDx=0;entryDy=0;entryPerimeter=0;fontSize=12;startSize=8;endSize=8;" edge="1" parent="1" source="EPdnfv_LTICuudPHdmh1-7" target="EPdnfv_LTICuudPHdmh1-1">
          <mxGeometry relative="1" as="geometry" />
        </mxCell>
        <mxCell id="EPdnfv_LTICuudPHdmh1-7" value="&lt;font style=&quot;font-size: 12px;&quot;&gt;humidity&lt;br&gt;sensor&lt;br&gt;&lt;/font&gt;" style="whiteSpace=wrap;html=1;aspect=fixed;fontSize=16;" vertex="1" parent="1">
          <mxGeometry x="85" y="-63" width="78" height="78" as="geometry" />
        </mxCell>
        <mxCell id="EPdnfv_LTICuudPHdmh1-14" style="edgeStyle=none;curved=1;rounded=0;orthogonalLoop=1;jettySize=auto;html=1;exitX=0.75;exitY=1;exitDx=0;exitDy=0;entryX=0.75;entryY=0;entryDx=0;entryDy=0;fontSize=12;startSize=8;endSize=8;" edge="1" parent="1" source="EPdnfv_LTICuudPHdmh1-8" target="EPdnfv_LTICuudPHdmh1-1">
          <mxGeometry relative="1" as="geometry" />
        </mxCell>
        <mxCell id="EPdnfv_LTICuudPHdmh1-8" value="&lt;font style=&quot;font-size: 12px;&quot;&gt;Air quality measuring sensor&lt;/font&gt;" style="whiteSpace=wrap;html=1;aspect=fixed;fontSize=16;" vertex="1" parent="1">
          <mxGeometry x="208" y="-63" width="78" height="78" as="geometry" />
        </mxCell>
        <mxCell id="EPdnfv_LTICuudPHdmh1-15" style="edgeStyle=none;curved=1;rounded=0;orthogonalLoop=1;jettySize=auto;html=1;exitX=0;exitY=1;exitDx=0;exitDy=0;entryX=1;entryY=0;entryDx=0;entryDy=0;fontSize=12;startSize=8;endSize=8;" edge="1" parent="1" source="EPdnfv_LTICuudPHdmh1-9" target="EPdnfv_LTICuudPHdmh1-1">
          <mxGeometry relative="1" as="geometry" />
        </mxCell>
        <mxCell id="EPdnfv_LTICuudPHdmh1-9" value="&lt;font style=&quot;font-size: 12px;&quot;&gt;Water quality measuring sensor&lt;/font&gt;" style="whiteSpace=wrap;html=1;aspect=fixed;fontSize=16;" vertex="1" parent="1">
          <mxGeometry x="334" y="-63" width="78" height="78" as="geometry" />
        </mxCell>
        <mxCell id="EPdnfv_LTICuudPHdmh1-17" style="edgeStyle=none;curved=1;rounded=0;orthogonalLoop=1;jettySize=auto;html=1;exitX=1;exitY=0.5;exitDx=0;exitDy=0;entryX=0;entryY=0.5;entryDx=0;entryDy=0;fontSize=12;startSize=8;endSize=8;" edge="1" parent="1" source="EPdnfv_LTICuudPHdmh1-10" target="EPdnfv_LTICuudPHdmh1-1">
          <mxGeometry relative="1" as="geometry" />
        </mxCell>
        <mxCell id="EPdnfv_LTICuudPHdmh1-10" value="&lt;font style=&quot;font-size: 12px;&quot;&gt;light intensity sensor&lt;/font&gt;" style="whiteSpace=wrap;html=1;aspect=fixed;fontSize=16;" vertex="1" parent="1">
          <mxGeometry x="-39" y="99.5" width="78" height="78" as="geometry" />
        </mxCell>
        <mxCell id="EPdnfv_LTICuudPHdmh1-16" style="edgeStyle=none;curved=1;rounded=0;orthogonalLoop=1;jettySize=auto;html=1;exitX=0;exitY=0.5;exitDx=0;exitDy=0;entryX=1;entryY=0.5;entryDx=0;entryDy=0;fontSize=12;startSize=8;endSize=8;" edge="1" parent="1" source="EPdnfv_LTICuudPHdmh1-11" target="EPdnfv_LTICuudPHdmh1-1">
          <mxGeometry relative="1" as="geometry" />
        </mxCell>
        <mxCell id="EPdnfv_LTICuudPHdmh1-11" value="&lt;font style=&quot;font-size: 12px;&quot;&gt;noise level detecting sensor&lt;/font&gt;" style="whiteSpace=wrap;html=1;aspect=fixed;fontSize=16;" vertex="1" parent="1">
          <mxGeometry x="334" y="99.5" width="78" height="78" as="geometry" />
        </mxCell>
        <mxCell id="EPdnfv_LTICuudPHdmh1-18" value="PC (Store and view)" style="rounded=1;whiteSpace=wrap;html=1;fontSize=16;" vertex="1" parent="1">
          <mxGeometry x="138" y="433" width="120" height="60" as="geometry" />
        </mxCell>
        <mxCell id="EPdnfv_LTICuudPHdmh1-20" value="" style="endArrow=classic;html=1;rounded=0;fontSize=12;startSize=8;endSize=8;curved=1;" edge="1" parent="1">
          <mxGeometry width="50" height="50" relative="1" as="geometry">
            <mxPoint x="114" y="320" as="sourcePoint" />
            <mxPoint x="195" y="320" as="targetPoint" />
          </mxGeometry>
        </mxCell>
        <mxCell id="EPdnfv_LTICuudPHdmh1-21" value="wireless &lt;br&gt;communication" style="text;html=1;align=center;verticalAlign=middle;resizable=0;points=[];autosize=1;strokeColor=none;fillColor=none;fontSize=16;" vertex="1" parent="1">
          <mxGeometry x="-15" y="300" width="126" height="50" as="geometry" />
        </mxCell>
      </root>
    </mxGraphModel>
  </diagram>
</mxfile>
